<svg id="accounting" xmlns="http://www.w3.org/2000/svg" width="512" height="512" viewBox="0 0 512 512">
  <path id="Path_3" data-name="Path 3" d="M475.858,268.032C456.877,264.086,431.164,262,401.5,262c-12.243,0-23.8.361-34.5,1.056V27.5A27.532,27.532,0,0,0,339.5,0H27.5C11.565,0,0,13.248,0,31.5v415C0,457.367,12.013,470,27.5,470H291v11.5c0,16.954,27.2,22.609,36.142,24.468C346.123,509.914,371.836,512,401.5,512s55.377-2.086,74.358-6.032C484.8,504.109,512,498.454,512,481.5v-189C512,275.546,484.8,269.891,475.858,268.032ZM497,386.952c-.155.322-3.276,5.834-26.7,10.332-17.779,3.413-41.569,5.217-68.8,5.217s-51.019-1.8-68.8-5.217C308.7,392.676,306.013,387,306,387V357.773c7.85,3.677,16.724,5.526,21.142,6.444,18.981,3.946,44.694,6.032,74.358,6.032s55.377-2.086,74.358-6.032c4.417-.918,13.292-2.767,21.142-6.444ZM193,388.5a7.5,7.5,0,0,0-7.5,7.5v19H71.5c-3.909,0-6.5-3.2-6.5-4.5V336H185.5v25a7.5,7.5,0,0,0,15,0V336H291v79H200.5V396A7.5,7.5,0,0,0,193,388.5ZM321,269.4c-11.5,2.82-30,9.114-30,23.1V321H200.5V242h114a6.507,6.507,0,0,1,6.5,6.5ZM185.5,321H65V250.5c0-5.084,2.612-8.5,6.5-8.5h114ZM497,339.7c-.155.322-3.276,5.834-26.7,10.332-17.779,3.413-41.569,5.217-68.8,5.217s-51.019-1.8-68.8-5.217c-24-4.608-26.689-10.284-26.7-10.284V310.523c7.85,3.677,16.724,5.526,21.142,6.444C346.123,320.914,371.836,323,401.5,323s55.377-2.086,74.358-6.032c4.417-.918,13.292-2.767,21.142-6.444Zm-26.7-57.485c22.622,4.343,26.31,9.635,26.677,10.283-.367.648-4.055,5.94-26.677,10.283C452.519,306.2,428.729,308,401.5,308s-51.019-1.8-68.8-5.217c-22.622-4.343-26.31-9.635-26.677-10.283.367-.648,4.055-5.94,26.677-10.283C350.481,278.8,374.271,277,401.5,277S452.519,278.8,470.3,282.217ZM27.5,455c-7.222,0-12.5-5.965-12.5-8.5V202H262a7.5,7.5,0,0,0,0-15H15V31.5C15,21.477,19.906,15,27.5,15h312A12.514,12.514,0,0,1,352,27.5V187H297a7.5,7.5,0,0,0,0,15h55v62.308q-8.505.887-16,2.1V248.5A21.525,21.525,0,0,0,314.5,227H71.5C59.243,227,50,237.1,50,250.5v160C50,420.888,60.047,430,71.5,430H291v25Zm442.8,36.783C452.519,495.2,428.729,497,401.5,497s-51.019-1.8-68.8-5.217c-24-4.607-26.689-10.283-26.7-10.283V452.273c7.85,3.677,16.724,5.526,21.142,6.444,18.981,3.946,44.694,6.032,74.358,6.032,14.293,0,27.832-.495,40.24-1.473a7.5,7.5,0,1,0-1.177-14.953c-12.018.946-25.16,1.426-39.063,1.426-27.229,0-51.019-1.8-68.8-5.217-24-4.606-26.689-10.282-26.7-10.282V405.023c7.85,3.677,16.724,5.526,21.142,6.444,18.981,3.946,44.694,6.032,74.358,6.032s55.377-2.086,74.358-6.032c4.417-.918,13.292-2.767,21.142-6.444V434.2c-.154.32-2.916,5.2-22.767,9.527a7.5,7.5,0,1,0,3.194,14.656c4.1-.894,12.229-2.67,19.573-6.105v29.172C496.845,481.774,493.724,487.285,470.3,491.783Z" fill="#fff"/>
  <path id="Path_4" data-name="Path 4" d="M337,140.5v-79A21.525,21.525,0,0,0,315.5,40H150a7.5,7.5,0,0,0,0,15H315.5a6.507,6.507,0,0,1,6.5,6.5v79a6.507,6.507,0,0,1-6.5,6.5H71.5a6.508,6.508,0,0,1-6.5-6.5v-79A6.508,6.508,0,0,1,71.5,55H115a7.5,7.5,0,0,0,0-15H71.5A21.525,21.525,0,0,0,50,61.5v79A21.525,21.525,0,0,0,71.5,162h244A21.525,21.525,0,0,0,337,140.5Z" fill="#fff"/>
  <path id="Path_5" data-name="Path 5" d="M157.5,368h-54a7.5,7.5,0,0,0,0,15h54a7.5,7.5,0,0,0,0-15Z" fill="#fff"/>
  <path id="Path_6" data-name="Path 6" d="M108.5,289H123v14.5a7.5,7.5,0,0,0,15,0V289h14.5a7.5,7.5,0,0,0,0-15H138V259.5a7.5,7.5,0,0,0-15,0V274H108.5a7.5,7.5,0,0,0,0,15Z" fill="#fff"/>
  <path id="Path_7" data-name="Path 7" d="M276.86,260.64a7.5,7.5,0,0,0-10.607,0L256,270.893,245.747,260.64a7.5,7.5,0,1,0-10.607,10.607L245.393,281.5,235.14,291.753a7.5,7.5,0,1,0,10.607,10.607L256,292.107l10.253,10.253a7.5,7.5,0,1,0,10.607-10.607L266.607,281.5l10.253-10.253A7.5,7.5,0,0,0,276.86,260.64Z" fill="#fff"/>
  <path id="Path_8" data-name="Path 8" d="M239.146,400.146a7.481,7.481,0,0,0,5.3-2.2l34-34a7.5,7.5,0,1,0-10.607-10.607l-34,34a7.5,7.5,0,0,0,5.3,12.8Z" fill="#fff"/>
  <g id="Group_7" data-name="Group 7">
    <circle id="Ellipse_1" data-name="Ellipse 1" cx="7.5" cy="7.5" r="7.5" transform="translate(234 349)" fill="#fff"/>
    <circle id="Ellipse_2" data-name="Ellipse 2" cx="7.5" cy="7.5" r="7.5" transform="translate(264 387)" fill="#fff"/>
  </g>
  <path id="Path_9" data-name="Path 9" d="M290.5,133A17.521,17.521,0,0,0,308,115.5v-29A17.521,17.521,0,0,0,290.5,69h-14A17.521,17.521,0,0,0,259,86.5v29A17.521,17.521,0,0,0,276.5,133ZM274,115.5v-29a2.5,2.5,0,0,1,2.5-2.5h14a2.5,2.5,0,0,1,2.5,2.5v29a2.5,2.5,0,0,1-2.5,2.5h-14A2.5,2.5,0,0,1,274,115.5Z" fill="#fff"/>
</svg>
