<svg xmlns="http://www.w3.org/2000/svg" width="62.414" height="62.414" viewBox="0 0 62.414 62.414">
  <path id="basket" d="M60,39H59V30a27.036,27.036,0,0,0-.808-6.515h1.293V20.742a7.007,7.007,0,0,0-.74-3.135,7.014,7.014,0,0,0,2.73-1.669L63.414,14l-1.939-1.939a7,7,0,0,0-2.74-1.693,7.023,7.023,0,0,0,.751-3.111V4.515H56.743a7,7,0,0,0-3.135.741,7.038,7.038,0,0,0-1.668-2.73L50,.586,48.061,2.525a7,7,0,0,0-1.693,2.74,7.026,7.026,0,0,0-3.11-.751H40.925A27.009,27.009,0,0,0,5,30v9H4a3,3,0,0,0-3,3v2a2.994,2.994,0,0,0,2.188,2.874L6.272,59.212A4.994,4.994,0,0,0,11.123,63H52.877a4.994,4.994,0,0,0,4.851-3.788l3.084-12.338A2.994,2.994,0,0,0,63,44V42a3,3,0,0,0-3-3Zm-7,0V30a21.049,21.049,0,0,0-.615-5.017,6.96,6.96,0,0,0,1.247-2.249,7.034,7.034,0,0,0,2.48.7A25.06,25.06,0,0,1,57,30v9ZM28,21a1,1,0,0,1,1,1v1H23V22a1,1,0,0,1,1-1Zm3.086,3.219L33.5,21h1l2.414,3.219L36.219,27H31.78ZM22,25h7.219l.507,2.028A2.993,2.993,0,0,0,27,30v9H19V28A3,3,0,0,1,22,25Zm7,5a1,1,0,0,1,1-1h8a1,1,0,0,1,1,1v1H38a3,3,0,0,0-3,3v1.184A3,3,0,0,0,33,38v1H29Zm14,5H37V34a1,1,0,0,1,1-1h4a1,1,0,0,1,1,1Zm-8,3a1,1,0,0,1,1-1h8a1,1,0,0,1,1,1v1H35Zm10-2.816V34a3,3,0,0,0-3-3H41V30a2.993,2.993,0,0,0-2.726-2.972l.812-3.247L35.5,19h-3l-1.63,2.173A3,3,0,0,0,28,19H27V15.04a2.471,2.471,0,0,1,.414-.04h1.172a2.4,2.4,0,0,1,1.707.708,1,1,0,0,0,1.414-1.415A4.384,4.384,0,0,0,28.586,13H27.414a4.387,4.387,0,0,0-3.121,1.292A2.4,2.4,0,0,1,22.586,15H21a1,1,0,1,0,0,2h1.586A4.384,4.384,0,0,0,25,16.279V19H24a3,3,0,0,0-3,3v1.1A5.009,5.009,0,0,0,17,28V39H13V30A18.972,18.972,0,0,1,38.447,12.139L36.586,14l1.939,1.939a7,7,0,0,0,2.74,1.693,7.023,7.023,0,0,0-.751,3.111v2.743h2.743a6.988,6.988,0,0,0,3.134-.741,7.031,7.031,0,0,0,1.668,2.73L50,27.414l.705-.7A19.124,19.124,0,0,1,51,30v9H47V38A3,3,0,0,0,45,35.184ZM42.575,12.232A7.019,7.019,0,0,0,46.01,14.1,3.952,3.952,0,0,0,46.2,15.2a5,5,0,0,1-6.264-.672L39.414,14l.525-.525a5.028,5.028,0,0,1,2.539-1.349c.034.034.063.072.1.106ZM50,12a2,2,0,1,1-2,2A2,2,0,0,1,50,12Zm6.011,5.182a5,5,0,0,1,1.475,3.561v.743h-.743a5.035,5.035,0,0,1-2.749-.841c0-.049.006-.1.006-.145a7.022,7.022,0,0,0-1.106-3.754,4.011,4.011,0,0,0,.637-.908,5.026,5.026,0,0,1,2.48,1.344Zm-13.5,3.561a5.032,5.032,0,0,1,.842-2.75c.047,0,.1.007.143.007a7.022,7.022,0,0,0,3.754-1.106,4,4,0,0,0,.907.637,5,5,0,0,1-4.9,3.954h-.743v-.742Zm5.717.681A7.021,7.021,0,0,0,50.1,17.989,3.946,3.946,0,0,0,51.2,17.8a5,5,0,0,1-.671,6.265L50,24.586l-.525-.525a5.032,5.032,0,0,1-1.349-2.539c.034-.034.072-.063.106-.1ZM60.586,14l-.525.525a5.036,5.036,0,0,1-2.539,1.349c-.033-.035-.063-.073-.1-.107a7.019,7.019,0,0,0-3.435-1.873A3.952,3.952,0,0,0,53.8,12.8a5,5,0,0,1,6.264.673Zm-3.1-7.485v.743a5.029,5.029,0,0,1-.842,2.75c-.048,0-.1-.008-.143-.008a7.022,7.022,0,0,0-3.754,1.106,4,4,0,0,0-.907-.637,5,5,0,0,1,4.9-3.954Zm-8.01-2.576L50,3.414l.525.525a5.032,5.032,0,0,1,1.349,2.539c-.035.033-.073.063-.107.1A7.026,7.026,0,0,0,49.9,10.01,3.946,3.946,0,0,0,48.8,10.2a5,5,0,0,1,.672-6.264Zm-6.96,2.576h.743a5.035,5.035,0,0,1,2.749.841c0,.048-.007.1-.007.144a7.022,7.022,0,0,0,1.106,3.754,4.011,4.011,0,0,0-.637.908,5,5,0,0,1-3.954-4.9ZM7,30A24.962,24.962,0,0,1,40.515,6.511v.746a7.007,7.007,0,0,0,.74,3.135,7.077,7.077,0,0,0-.882.352A21,21,0,0,0,11,30v9H7ZM58.72,47l-1.5,6H50.705l1.125-6ZM48.67,53h-6.5l.772-6H49.8ZM24.108,55H31v6H24.88Zm-1.245,6H16.83l-1.125-6h6.387ZM33,55h6.892l-.772,6H33Zm8.909,0H48.3l-1.125,6H41.138Zm-1.76-2H33V47h7.92ZM31,53H23.851l-.772-6H31Zm-9.938-6,.772,6h-6.5l-1.125-6ZM12.17,47,13.3,53H6.78l-1.5-6ZM8.212,58.728,7.28,55h6.39L14.8,61H11.123A3,3,0,0,1,8.212,58.728Zm47.576,0A3,3,0,0,1,52.877,61H49.205l1.125-6h6.39ZM61,44a1,1,0,0,1-1,1H4a1,1,0,0,1-1-1V42a1,1,0,0,1,1-1H60a1,1,0,0,1,1,1Z" transform="translate(-1 -0.586)" fill="#fff"/>
</svg>
