<svg xmlns="http://www.w3.org/2000/svg" width="60" height="60" viewBox="0 0 60 60">
  <g id="Contact" transform="translate(-2 -2)">
    <path id="Path_4" data-name="Path 4" d="M61.792,26.39,51.732,13.33a1,1,0,0,0-.792-.39h0L42,12.958V12a10,10,0,1,0-20,0v.982L13,13a1,1,0,0,0-.79.39l-10,13A1,1,0,0,0,2,27V59a3,3,0,0,0,3,3H59a3,3,0,0,0,3-3V27A1,1,0,0,0,61.792,26.39ZM50.449,14.941l9.306,12.081L50.485,40H47V34.58a7.032,7.032,0,0,0-5.157-6.755L36,26.236V25.05A9,9,0,0,0,41,17V16a1,1,0,0,0,1-1v-.042ZM25,16h2.687a8.939,8.939,0,0,0,6.363-2.636l.7-.7A6.943,6.943,0,0,0,39,15.787V17a7,7,0,0,1-14,0Zm7,10a8.971,8.971,0,0,0,2-.232V27a.989.989,0,0,0,.349.743L32,29.7l-2.349-1.956A.989.989,0,0,0,30,27V25.768A8.971,8.971,0,0,0,32,26Zm-4.6,2.471,3.6,3V34h2V31.469l3.6-3,1.4.381v1.734l-6,6-6-6V28.852Zm-3.107,3.236,7,7a1,1,0,0,0,1.414,0l7-7A1,1,0,0,0,40,31V29.4l1.314.358A5.026,5.026,0,0,1,45,34.58V40H19V34.58a5.024,5.024,0,0,1,3.683-4.825L24,29.4V31a1,1,0,0,0,.293.707ZM24,12a8,8,0,1,1,16,0v1.951a4.968,4.968,0,0,1-3.764-2.715l-.341-.683a1,1,0,0,0-.735-.54,1.013,1.013,0,0,0-.867.28L32.636,11.95A6.954,6.954,0,0,1,27.687,14H24ZM13.493,15,22,14.982V15a1,1,0,0,0,1,1v1a9,9,0,0,0,5,8.05v1.186l-5.846,1.59A7.031,7.031,0,0,0,17,34.58V40H13.515L4.245,27.022ZM59,60H5a1,1,0,0,1-1-1V30.121l8.186,11.46A1,1,0,0,0,13,42H51a1,1,0,0,0,.814-.419L60,30.121V59A1,1,0,0,1,59,60Z" fill="#fff"/>
    <path id="Path_5" data-name="Path 5" d="M32,22a4,4,0,0,0,4-4H34a2,2,0,0,1-4,0H28A4,4,0,0,0,32,22Z" fill="#fff"/>
  </g>
</svg>
