<svg xmlns="http://www.w3.org/2000/svg" width="477.242" height="512" viewBox="0 0 477.242 512">
  <g id="delete" transform="translate(-17.379)">
    <g id="Group_3" data-name="Group 3">
      <g id="Group_2" data-name="Group 2">
        <g id="Group_1" data-name="Group 1">
          <path id="Path_1" data-name="Path 1" d="M353.574,176.526l-40.078-1.47L304.807,412.34l40.078,1.464Z" fill="#a94442"/>
          <rect id="Rectangle_1" data-name="Rectangle 1" width="40.104" height="237.285" transform="translate(235.948 175.791)" fill="#a94442"/>
          <path id="Path_2" data-name="Path 2" d="M207.186,412.334,198.5,175.049l-40.078,1.471,8.69,237.284Z" fill="#a94442"/>
          <path id="Path_3" data-name="Path 3" d="M17.379,76.867v40.1H59.168L92.32,493.706A20.048,20.048,0,0,0,112.292,512h286.74A20.047,20.047,0,0,0,419,493.7l33.153-376.728h42.464v-40.1ZM380.665,471.9H130.654L99.426,116.971H411.9Z" fill="#a94442"/>
        </g>
      </g>
    </g>
    <g id="Group_5" data-name="Group 5">
      <g id="Group_4" data-name="Group 4">
        <path id="Path_4" data-name="Path 4" d="M321.5,0H190.5a33.458,33.458,0,0,0-33.42,33.42v63.5h40.1V40.1H314.82V96.919h40.1V33.42A33.458,33.458,0,0,0,321.5,0Z" fill="#a94442"/>
      </g>
    </g>
  </g>
</svg>
