<svg xmlns="http://www.w3.org/2000/svg" width="511.994" height="512" viewBox="0 0 511.994 512">
  <g id="edit" transform="translate(-0.003)">
    <g id="Group_2" data-name="Group 2">
      <g id="Group_1" data-name="Group 1">
        <path id="Path_1" data-name="Path 1" d="M476.828,302.249a19.54,19.54,0,0,0-19.542,19.542V472.916H39.087V54.718H190.212a19.542,19.542,0,0,0,0-39.084H19.545A19.54,19.54,0,0,0,0,35.176V492.458A19.541,19.541,0,0,0,19.545,512H476.827a19.54,19.54,0,0,0,19.542-19.542V321.791A19.54,19.54,0,0,0,476.828,302.249Z" fill="#3c763d"/>
      </g>
    </g>
    <g id="Group_4" data-name="Group 4">
      <g id="Group_3" data-name="Group 3">
        <path id="Path_2" data-name="Path 2" d="M506.271,75.426l-69.693-69.7a19.531,19.531,0,0,0-27.632,0L178.35,236.321a19.537,19.537,0,0,0-5,8.514L146,341.894A19.547,19.547,0,0,0,170.1,366.009l97.059-27.359a19.585,19.585,0,0,0,8.52-5l230.589-230.6A19.533,19.533,0,0,0,506.271,75.426ZM251.658,302.412l-58.58,16.506,16.513-58.567L422.762,47.181l42.061,42.061Z" fill="#3c763d"/>
      </g>
    </g>
    <g id="Group_6" data-name="Group 6">
      <g id="Group_5" data-name="Group 5">
        <rect id="Rectangle_1" data-name="Rectangle 1" width="39.084" height="98.556" transform="translate(178.979 263.278) rotate(-45)" fill="#3c763d"/>
      </g>
    </g>
  </g>
</svg>
