<svg xmlns="http://www.w3.org/2000/svg" width="306.774" height="296.993" viewBox="0 0 306.774 296.993">
  <g id="house-black-silhouette-without-door" transform="translate(0 -4.89)">
    <path id="Path_3" data-name="Path 3" d="M302.93,149.794a14.627,14.627,0,0,0-1.2-20.932L164.63,8.9a17.09,17.09,0,0,0-22.292.257L4.771,135.258a14.544,14.544,0,0,0-.662,20.9l3.449,3.592c5.722,5.955,14.971,6.665,20.645,1.581l10.281-9.207V286.918a14.962,14.962,0,0,0,14.965,14.965h53.624a14.962,14.962,0,0,0,14.965-14.965v-94.3h68.4v94.3c-.119,8.264,5.794,14.959,14.058,14.959h56.828a14.962,14.962,0,0,0,14.965-14.965V154.024s2.84,2.488,6.343,5.567,10.842.609,16.4-5.513Z" fill="#fff"/>
  </g>
</svg>
