<svg xmlns="http://www.w3.org/2000/svg" width="451.948" height="512" viewBox="0 0 451.948 512">
  <g id="medical" transform="translate(-30.026)">
    <path id="Path_10" data-name="Path 10" d="M241.974,241.05a15,15,0,0,0-15-15h-121a15,15,0,1,0,0,30h121a15,15,0,0,0,15-15Z" fill="#fff"/>
    <path id="Path_11" data-name="Path 11" d="M166.024,286.05h-60.1a15,15,0,0,0,0,30h60.1a15,15,0,0,0,0-30Z" fill="#fff"/>
    <path id="Path_12" data-name="Path 12" d="M166.023,345.95h-60.15a15,15,0,1,0,0,30h60.15a15,15,0,1,0,0-30Z" fill="#fff"/>
    <path id="Path_13" data-name="Path 13" d="M151.371,151h29.6v29.6a15,15,0,0,0,30,0V151h29.6a15,15,0,1,0,0-30h-29.6V91.4a15,15,0,0,0-30,0V121h-29.6a15,15,0,0,0,0,30Z" fill="#fff"/>
    <path id="Path_14" data-name="Path 14" d="M360.873,242.711V211h106.05a15,15,0,0,0,15-15V75.525A75.608,75.608,0,0,0,406.36,0H105.008A75.068,75.068,0,0,0,30.026,74.983V496.73c0,13.53,16.548,20.071,25.834,10.374l19.189-20.04L95.32,507.336a15,15,0,0,0,21.213,0l19.209-19.2,19.406,19.245a15,15,0,0,0,21.124,0l19.711-19.544,19.72,19.545a15,15,0,0,0,21.126-.007l25.493-25.3A134.345,134.345,0,0,0,346.974,512c74.439,0,135-60.561,135-135,0-69.748-53.167-127.309-121.1-134.289ZM451.922,75.525V181h-91.05V75.525a45.525,45.525,0,1,1,91.05,0ZM226.255,475.6l-19.715-19.54a15,15,0,0,0-21.121,0l-19.708,19.54-19.45-19.289a15,15,0,0,0-21.168.042l-19.164,19.159L85.423,455.011a14.989,14.989,0,0,0-21.44.232l-3.957,4.132V74.983A45.034,45.034,0,0,1,105.008,30H346.184a75.123,75.123,0,0,0-15.312,45.525V242.964C264,250.949,211.974,308.009,211.974,377a134.342,134.342,0,0,0,29.219,83.78ZM346.974,482a105,105,0,1,1,105-105A105.119,105.119,0,0,1,346.974,482Z" fill="#fff"/>
    <path id="Path_15" data-name="Path 15" d="M371.99,368.209c-12.525-9.761-29.142-11.739-32.313-17.463-.761-1.374.11-4.237,2.332-5.731,3.3-2.22,10.91-1.3,13.377.976a15,15,0,0,0,20.34-22.052,37.7,37.7,0,0,0-14.355-8.06,14.995,14.995,0,0,0-29.988.243v.755c-19.165,7.888-27.622,30.944-17.948,48.408,6.793,12.264,18.495,16.886,27.9,20.6,6.212,2.454,16.619,6.159,15.876,12.8a10.713,10.713,0,0,1-6.064,7.872c-4.975,2.34-15.1.814-21.233-3.2a15,15,0,0,0-16.424,25.106,57.548,57.548,0,0,0,17.9,7.482v.254a15,15,0,0,0,30,0v-1.426c27.323-10.482,36.306-46.537,10.607-66.562Z" fill="#fff"/>
  </g>
</svg>
