<svg xmlns="http://www.w3.org/2000/svg" width="192.999" height="84.698" viewBox="0 0 192.999 84.698">
  <path id="money-bills" d="M150.14,138.849H2.5a2.5,2.5,0,0,1-2.5-2.5V93.934c0-.066,0-.133.006-.2a2.5,2.5,0,0,1,.84-1.7l0,0c.037-.032.074-.063.112-.093l46.9-37.241a2.5,2.5,0,0,1,1.555-.542H190.488a1.805,1.805,0,0,1,.333.021h0l.012,0h0a2.508,2.508,0,0,1,.86.281l0,0h0a2.5,2.5,0,0,1,1.25,1.689v0a2.5,2.5,0,0,1,.051.522v42.5a2.5,2.5,0,0,1-.806,1.839l-40.359,37.176a.046.046,0,0,0-.007.007h0s-.006,0-.008.008a0,0,0,0,0,0,0,2.493,2.493,0,0,1-1.574.644Zm-47.38-5h44.88v-5.358H102.76v5.358Zm-48.921,0H97.76V96.408H53.839ZM5,133.849H48.839v-5.358H5Zm147.641-6.11v2.908L188,98.077V95.1Zm-49.881-4.248h44.88v-6.138H102.76v6.138Zm-97.76,0H48.839v-6.138H5Zm147.641-6.433v3.876L188,88.295V84.419Zm-49.881-4.705h44.88v-5.7H102.76v5.7Zm-97.76,0H48.839v-5.7H5Zm147.641-5.87v3.771L188,77.615V73.844Zm-49.881-4.829h44.88V96.408H102.76v5.246Zm-97.76,0H48.839V96.408H5ZM152.641,95v4.676L188,67.039V62.362Zm-46-3.594h42.522l34.943-32.255H141.481l-4.9,4.535a7.775,7.775,0,0,1,3.882,4.455c.8,2.806-.452,5.814-3.725,8.944-8,7.646-20.262,8.517-23.922,8.6Zm-48.374,0H99.281l10.837-10.033.03-.028L134.12,59.154H97.133l-9.779,8.115c-.026.022-.052.044-.079.065Zm-48.6,0H50.437l8.944-7.423a6.716,6.716,0,0,1-3.31-4.1C55.016,75.419,59.9,71.69,61.5,70.464a37.129,37.129,0,0,1,23.388-7.647L89.3,59.153H50.293ZM78.2,68.368a32.383,32.383,0,0,0-13.664,6.069c-3.091,2.363-3.706,3.846-3.6,4.3.133.564,1.406,1.286,2.7,1.718Zm54.418-1.01L118.941,80.021c4.493-.815,10.223-2.608,14.344-6.548,1.721-1.646,2.608-3.123,2.374-3.954C135.418,68.669,133.982,67.847,132.618,67.358Z" transform="translate(0 -54.151)" fill="#fff"/>
</svg>
