<svg xmlns="http://www.w3.org/2000/svg" width="46" height="62" viewBox="0 0 46 62">
  <g id="money-bag" transform="translate(-9 -1)">
    <path id="Path_1" data-name="Path 1" d="M41.429,16.027a3.938,3.938,0,0,0-1.521-5.521l2.971-2.971A3.828,3.828,0,0,0,40.172,1h-.1A5.958,5.958,0,0,0,36,2.591a5.824,5.824,0,0,0-8,0A5.958,5.958,0,0,0,23.929,1H23.2a3.2,3.2,0,0,0-2.46,5.253l3.484,4.181a3.944,3.944,0,0,0-1.655,5.594C14.772,21.184,9,32.44,9,42.8,9,55.26,17.813,63,32,63s23-7.74,23-20.2c0-10.361-5.772-21.616-13.571-26.773ZM22,4.2A1.2,1.2,0,0,1,23.2,3h.727a3.977,3.977,0,0,1,2.828,1.17,1.77,1.77,0,0,0,2.536-.049,3.929,3.929,0,0,1,5.464.049,1.8,1.8,0,0,0,2.485,0A3.978,3.978,0,0,1,40.071,3h.1a1.829,1.829,0,0,1,1.293,3.122L37.586,10H36.477l1.451-3.628-1.857-.743L34.323,10H33V5H31v5H29.677L27.928,5.628l-1.857.743L27.523,10H26.469L22.28,4.973A1.2,1.2,0,0,1,22,4.2ZM26,12H38a2,2,0,0,1,0,4H26a2,2,0,0,1,0-4Zm6,49c-13.149,0-21-6.8-21-18.2,0-9.9,5.57-20.653,13.034-25.338A3.947,3.947,0,0,0,26,18h.523l-1.451,3.628,1.857.743L28.677,18H31v4h2V18h2.323l1.749,4.372,1.857-.743L37.477,18H38a3.943,3.943,0,0,0,1.965-.538C47.43,22.147,53,32.9,53,42.8,53,54.2,45.149,61,32,61Z" fill="#fff"/>
    <path id="Path_2" data-name="Path 2" d="M33,31V29H31v2a5,5,0,0,0,0,10v6a3,3,0,0,1-3-3V43H26v1a5.006,5.006,0,0,0,5,5v2h2V49a5,5,0,0,0,0-10V33a3,3,0,0,1,3,3v1h2V36A5.006,5.006,0,0,0,33,31Zm3,13a3,3,0,0,1-3,3V41A3,3,0,0,1,36,44Zm-5-5a3,3,0,0,1,0-6Z" fill="#fff"/>
    <path id="Path_3" data-name="Path 3" d="M32,25A15,15,0,1,0,47,40,15.017,15.017,0,0,0,32,25Zm0,28A13,13,0,1,1,45,40,13.015,13.015,0,0,1,32,53Z" fill="#fff"/>
  </g>
</svg>
