<svg xmlns="http://www.w3.org/2000/svg" width="512.001" height="311.089" viewBox="0 0 512.001 311.089">
  <g id="people" transform="translate(0 -100.456)">
    <g id="Group_8" data-name="Group 8">
      <g id="Group_7" data-name="Group 7">
        <path id="Path_3" data-name="Path 3" d="M256,149.6a72.911,72.911,0,1,0,72.911,72.911A72.993,72.993,0,0,0,256,149.6Zm0,113.418a40.506,40.506,0,1,1,40.506-40.506A40.552,40.552,0,0,1,256,263.021Z" fill="#fff"/>
      </g>
    </g>
    <g id="Group_10" data-name="Group 10">
      <g id="Group_9" data-name="Group 9">
        <path id="Path_4" data-name="Path 4" d="M256,262.481A108.681,108.681,0,0,0,147.443,371.038v24.3a16.2,16.2,0,0,0,32.406,0v-24.3a76.152,76.152,0,0,1,152.3,0v24.3a16.2,16.2,0,0,0,32.406,0v-24.3A108.684,108.684,0,0,0,256,262.481Z" fill="#fff"/>
      </g>
    </g>
    <g id="Group_12" data-name="Group 12">
      <g id="Group_11" data-name="Group 11">
        <path id="Path_5" data-name="Path 5" d="M403.443,100.456a72.911,72.911,0,1,0,72.911,72.911A72.993,72.993,0,0,0,403.443,100.456Zm0,113.417a40.506,40.506,0,1,1,40.506-40.506A40.548,40.548,0,0,1,403.443,213.873Z" fill="#fff"/>
      </g>
    </g>
    <g id="Group_14" data-name="Group 14">
      <g id="Group_13" data-name="Group 13">
        <path id="Path_6" data-name="Path 6" d="M403.443,213.333A108.782,108.782,0,0,0,298.1,295.177a16.2,16.2,0,1,0,31.379,8.059A76.227,76.227,0,0,1,479.6,321.891v24.3a16.2,16.2,0,1,0,32.4,0v-24.3A108.683,108.683,0,0,0,403.443,213.333Z" fill="#fff"/>
      </g>
    </g>
    <g id="Group_16" data-name="Group 16">
      <g id="Group_15" data-name="Group 15">
        <path id="Path_7" data-name="Path 7" d="M108.557,100.456a72.911,72.911,0,1,0,72.911,72.911A72.993,72.993,0,0,0,108.557,100.456Zm0,113.417a40.506,40.506,0,1,1,40.506-40.506A40.548,40.548,0,0,1,108.557,213.873Z" fill="#fff"/>
      </g>
    </g>
    <g id="Group_18" data-name="Group 18">
      <g id="Group_17" data-name="Group 17">
        <path id="Path_8" data-name="Path 8" d="M213.366,294.638A108.4,108.4,0,0,0,0,321.89v24.3a16.2,16.2,0,1,0,32.406,0v-24.3a76,76,0,0,1,149.571-19.2,16.2,16.2,0,1,0,31.389-8.057Z" fill="#fff"/>
      </g>
    </g>
  </g>
</svg>
