<svg xmlns="http://www.w3.org/2000/svg" width="59.991" height="60" viewBox="0 0 59.991 60">
  <g id="Analysis-report-document-develop-infromation" transform="translate(-2.009 -2)">
    <path id="Path_3" data-name="Path 3" d="M61.71,13.29l-11-11A1.033,1.033,0,0,0,50,2H25a3.009,3.009,0,0,0-3,3v6.05a20.973,20.973,0,0,0,0,41.9V59a3.009,3.009,0,0,0,3,3H59a3.009,3.009,0,0,0,3-3V14a1.033,1.033,0,0,0-.29-.71ZM51,5.41,58.59,13H52a1,1,0,0,1-1-1ZM4,32A19.023,19.023,0,0,1,22,13.03V31.59L8.9,44.69A18.879,18.879,0,0,1,4,32Zm6.31,14.1L23.41,33H41.97A18.963,18.963,0,0,1,10.31,46.1ZM60,59a1,1,0,0,1-1,1H25a1,1,0,0,1-1-1V52.95A21.014,21.014,0,0,0,44,32a1,1,0,0,0-1-1H24V5a1,1,0,0,1,1-1H49v8a3.009,3.009,0,0,0,3,3h8Z" fill="#fff"/>
    <path id="Path_4" data-name="Path 4" d="M27,7a1,1,0,0,0-1,1V28a1,1,0,0,0,1,1H47a1,1,0,0,0,1-1A21.023,21.023,0,0,0,27,7Zm1,20V9.03A19.017,19.017,0,0,1,45.97,27Z" fill="#fff"/>
    <path id="Path_5" data-name="Path 5" d="M49,40a9,9,0,1,0,9,9,9,9,0,0,0-9-9Zm0,16a7,7,0,1,1,7-7A7,7,0,0,1,49,56Z" fill="#fff"/>
    <path id="Path_6" data-name="Path 6" d="M47,50.586l-2.293-2.293-1.414,1.414,3,3a1,1,0,0,0,1.414,0l6-6-1.414-1.414Z" fill="#fff"/>
    <path id="Path_7" data-name="Path 7" d="M50,19h8v2H50Z" fill="#fff"/>
    <path id="Path_8" data-name="Path 8" d="M50,25h8v2H50Z" fill="#fff"/>
    <path id="Path_9" data-name="Path 9" d="M50,31h8v2H50Z" fill="#fff"/>
  </g>
</svg>
