<svg xmlns="http://www.w3.org/2000/svg" width="16.621" height="19.738" viewBox="0 0 16.621 19.738">
  <g id="user-profile" transform="translate(-1.559)">
    <path id="Path_10" data-name="Path 10" d="M18.18,19.738h-2A6.223,6.223,0,0,0,9.869,13.62a6.223,6.223,0,0,0-6.31,6.118h-2A8.225,8.225,0,0,1,9.87,11.62,8.225,8.225,0,0,1,18.18,19.738Z" fill="#fff"/>
    <path id="Path_11" data-name="Path 11" d="M9.87,10.97a5.485,5.485,0,1,1,5.486-5.485A5.492,5.492,0,0,1,9.87,10.97ZM9.87,2a3.485,3.485,0,1,0,3.486,3.485A3.488,3.488,0,0,0,9.87,2Z" fill="#fff"/>
  </g>
</svg>
